<?xml version="1.0" encoding="utf-8"?>
<!-- Generator: Adobe Illustrator 16.0.0, SVG Export Plug-In . SVG Version: 6.00 Build 0)  -->
<!DOCTYPE svg PUBLIC "-//W3C//DTD SVG 1.1//EN" "http://www.w3.org/Graphics/SVG/1.1/DTD/svg11.dtd">
<svg version="1.1" id="Layer_1" xmlns="http://www.w3.org/2000/svg" xmlns:xlink="http://www.w3.org/1999/xlink" x="0px" y="0px"
	 width="955.043px" height="561.619px" viewBox="0 0 955.043 561.619" enable-background="new 0 0 955.043 561.619"
	 xml:space="preserve">
<g id="layer1">
	<path id="Large_Narwhal_Ubuntu_11.04" fill="#333333" d="M280.844,465.722l6.878,5.744c8.437,7.046,17.546,10.539,28.465,12.297
		c23.204,3.735,105.031-3.704,147.996-11.09c28.259-4.857,30.025-2.826,45.238,5.262c18.34,9.752,68.76,17.578,81.818,7.248
		c12.357-9.775-2.789-17.682-23.42-32.558c5.303-3.309,10.867-5.732,21.971-9.316c73.746-23.805,137.301-74.632,176.924-128.396
		c27.424-37.212,40.752-70.855,54.098-136.549c8.781-43.226,12.904-57.16,19.891-66.146c2.723-3.503,22.158-12.198,41.561-21.919
		c36.016-18.045,68.096-37.202,71.486-42.688c6.014-11.179-10.068-6.162-24.484-7.225c-13.787-1.016-33.074-4.263-45.34-8.632
		c-12.266-4.369-20.973-8.862-27.32-8.181c-3.246,0.348-12.893,6.632-18.799,12.725c-12.725,13.129-15.088,16.536-15.088,5.981
		c0-15.94,0.883-20.568-22.801-18.121c-9.723,1.005-22.893-2.138-40.279-11.362c-11.781-6.249-18.822-14.406-24.734-12.521
		c-5.91,1.884,0.25,21.226,3.943,28.155c2.08,3.9,11.531,16.693,21.004,28.43c31.02,38.435,36.855,62.092,22.766,92.285
		c-14.748,31.604-48.752,53.326-106.348,67.936c-16.879,4.282-37.609,9.785-52.729,11.096c-20.887,1.812-23.732,2.33-28.264,4.419
		c-17.012,7.848-57.439,26.985-111.549,48.444c-27.188,10.782-63.298,26.237-76.701,33.636
		c-26.581,14.674-62.872,39.575-90.251,47.693c-30.262,8.973-38.028,19.947-43.265,52.493c-3.779,23.486-1.138,28.389-2.261,30.748
		c-13.008,0.949-22.291,12.398-35.064,14.139c-13.939,1.899-27.591,14.933-42.101,16.761c-15.803,1.99-31.613,16.059-45.48,18.139
		c-16.319,2.447-30.008,14.906-45.204,18.272c-15.416,3.416-27.706,13.795-41.271,17.164c-13.388,3.325-23.545,11.854-33.681,14.811
		c-10.101,2.947-17.236,8.213-22.434,11.213c-5.197,3-6.298,4.627-5.959,5.181c0.339,0.553,3.199,0.578,8.75-1.28
		c5.552-1.859,27.828-7.658,36.855-12.887c10.432-6.041,22.321-5.777,34.5-12.12c13.238-6.894,28.068-7.514,41.983-14.898
		c15.42-8.184,31.533-8.195,45.854-16.381c15.819-9.041,32.302-8.573,46.114-16.566c13.854-8.019,28.421-5.358,38.906-14.849
		C255.529,470.036,271.343,468.744,280.844,465.722z	">
	</path>
</g>
</svg>
